<svg fill="none" viewBox="0 0 100 100" xmlns="http://www.w3.org/2000/svg">
  <path
    d="m16 70.032 36.864-32.544 5.664 5.472-37.152 32.832zm-1.632-28.032c0-5.76 1.536-10.24 4.608-13.44 3.136-3.2 7.296-4.8 12.48-4.8l-.288 8.64c-1.984 0-3.68.384-5.088 1.152-1.344.832-2.368 1.984-3.072 3.456s-1.056 3.136-1.056 4.992zm0 0h7.584c0 1.152.224 2.368.672 3.648s1.184 2.624 2.208 4.032c1.088 1.472 2.496 3.04 4.224 4.704l-5.952 4.896c-2.112-2.048-3.808-4.064-5.088-6.048-1.216-1.92-2.112-3.808-2.688-5.664-.64-1.792-.96-3.648-.96-5.568zm17.088-18.24c2.304-.064 4.544.384 6.72 1.344 2.24.96 4.352 2.208 6.336 3.744 2.048 1.536 3.936 3.168 5.664 4.896 1.728 1.792 3.296 3.488 4.704 5.088 1.408 1.664 2.624 3.04 3.648 4.128l-6.336 5.568c-1.024-.896-2.304-2.24-3.84-4.032-1.472-1.728-3.104-3.52-4.896-5.376s-3.744-3.456-5.856-4.8c-2.048-1.28-4.192-1.92-6.432-1.92zm-8.352 35.52 5.952-4.896 14.496 13.344-5.088 5.376zm29.76-21.792c1.664-1.472 3.392-2.944 5.184-4.416s3.68-2.72 5.664-3.744c2.048-.96 4.192-1.44 6.432-1.44l.096 8.448c-1.408 0-2.816.352-4.224 1.056-1.344.704-2.656 1.568-3.936 2.592-1.28 1.088-2.464 2.08-3.552 2.976zm17.28-9.6c2.816-.064 5.344.544 7.584 1.824 2.304 1.344 4.096 3.232 5.376 5.664 1.344 2.432 2.016 5.152 2.016 8.16h-7.584c0-2.048-.704-3.776-2.112-5.184-1.344-1.408-3.072-2.08-5.184-2.016zm-.96 24.672c2.88-.32 4.992-1.344 6.336-3.072 1.344-1.664 2.016-3.68 2.016-6.048h7.584c0 3.008-.608 5.728-1.824 8.16-1.216 2.496-2.912 4.512-5.088 6.048-2.112 1.6-4.576 2.592-7.392 2.976z"
    fill="currentColor" />
</svg>