<svg viewBox="0 0 421 225" fill="none" xmlns="http://www.w3.org/2000/svg">
  <g clip-path="url(#clip0_216_49)">
    <path
      d="M94.6 12.8H94.472L103.944 88.192C104.2 89.856 106.248 95.104 106.888 97.024L106.248 97.664C105.224 96.256 74.888 96.128 73.864 96.128L73.608 94.976C77.576 95.872 93.448 93.056 92.424 84.864L83.848 16C70.792 20.608 62.856 48.128 62.216 85.76V97.536H54.792L24.584 23.168L19.208 79.232C18.056 91.136 19.464 91.008 27.016 97.664L26.12 98.816C23.688 97.536 12.296 97.28 9.48 97.28H8.2L8.328 96.256C12.168 96.64 16.904 90.752 17.416 85.632L23.816 21.376L22.408 17.92L14.728 15.616V14.72C20.872 13.568 29.448 8.96 30.472 7.808C31.112 7.168 31.88 8.70399 31.88 8.70399L61.192 82.688C62.472 46.336 69.896 21.248 82.952 15.232L77.448 12.288V11.392C80.776 10.752 91.656 8.448 93.704 5.376C94.344 4.60799 95.24 6.144 95.24 6.144C94.344 8.19199 94.344 9.728 94.6 12.8ZM140.39 17.536L128.742 29.184L127.59 28.288L136.806 11.52L140.39 17.536ZM137.958 50.432C148.71 52.736 156.902 62.208 156.902 75.136C156.774 88.704 148.07 97.536 136.934 97.536C121.446 97.536 110.566 85.248 110.566 66.176C110.566 46.976 120.806 34.816 136.422 34.816C141.158 34.816 154.214 40.704 154.342 48.384C153.19 50.048 151.014 52.096 149.35 52.096C148.326 52.096 147.686 51.456 147.174 50.432H137.958ZM136.55 35.84C130.406 35.84 126.438 41.728 124.134 49.152H146.534C144.742 44.416 143.846 35.84 136.55 35.84ZM123.75 50.432C122.086 56.576 121.318 63.488 121.318 68.736C121.318 83.328 127.206 96.256 137.83 96.256C147.686 96.256 156.006 87.296 156.006 75.136C156.006 62.08 146.022 50.432 132.71 50.432H123.75ZM175.411 89.216L176.691 97.024L175.923 97.536C175.923 97.536 171.443 96 159.795 96V94.976C159.795 94.976 164.403 96 164.403 87.808V17.408L158.131 14.336V13.568C164.275 12.288 172.083 8.96 173.491 7.67999C174.131 7.03999 175.411 8.576 175.411 8.576V13.696C175.411 38.912 175.411 64 175.411 89.216ZM194.681 28.416C191.481 28.416 188.921 24.96 188.921 20.736C188.921 16.512 191.481 13.056 194.681 13.056C197.881 13.056 200.441 16.512 200.441 20.736C200.441 24.96 197.881 28.416 194.681 28.416ZM200.313 87.936L201.849 96.896L201.081 97.536C201.081 97.536 196.345 96 184.825 96V94.848C184.825 94.848 189.433 96 189.433 87.808V44.672L182.905 41.6C180.985 41.6 179.193 41.088 177.529 40.192L177.657 39.552C179.321 40.448 181.113 40.832 183.033 40.704C189.049 39.424 193.657 35.968 194.553 34.816C195.193 34.176 200.313 35.712 200.313 35.712V87.936ZM216.365 45.696C216.365 59.648 247.469 57.984 246.701 80.64C246.189 89.856 240.045 97.152 230.701 97.152C222.253 97.152 212.653 91.136 209.837 84.864L209.965 83.84C209.965 83.84 213.933 79.36 217.005 79.616C217.005 79.616 225.197 94.336 225.709 94.592C229.165 95.616 232.237 96.128 234.541 95.488C239.789 94.08 241.453 90.368 241.837 87.168C243.501 71.808 211.629 75.776 211.629 52.224C211.629 42.368 217.389 34.432 229.165 34.432C237.101 34.432 243.373 39.68 244.525 41.088V42.112C244.525 42.112 240.941 47.872 237.869 48.512C237.869 48.512 228.781 35.712 228.269 35.712C222.637 35.968 216.365 38.272 216.365 45.696ZM256.615 45.696C256.615 59.648 287.719 57.984 286.951 80.64C286.439 89.856 280.295 97.152 270.951 97.152C262.503 97.152 252.903 91.136 250.087 84.864L250.215 83.84C250.215 83.84 254.183 79.36 257.255 79.616C257.255 79.616 265.447 94.336 265.959 94.592C269.415 95.616 272.487 96.128 274.791 95.488C280.039 94.08 281.703 90.368 282.087 87.168C283.751 71.808 251.879 75.776 251.879 52.224C251.879 42.368 257.639 34.432 269.415 34.432C277.351 34.432 283.623 39.68 284.775 41.088V42.112C284.775 42.112 281.191 47.872 278.119 48.512C278.119 48.512 269.031 35.712 268.519 35.712C262.887 35.968 256.615 38.272 256.615 45.696ZM341.572 86.4L342.212 87.424C337.476 92.672 335.172 97.28 335.172 97.28L334.276 97.536L323.908 92.8V84.352C322.116 91.776 318.02 97.536 310.084 97.536C300.74 97.536 292.676 90.368 292.676 77.44C292.676 61.312 302.788 53.888 312.388 53.888C315.972 53.888 320.068 55.936 322.244 58.752C319.172 52.352 312.132 46.848 304.068 46.848C300.996 46.08 297.284 40.832 297.284 40.832L297.156 39.936C298.436 38.272 298.692 34.816 314.436 34.816C332.228 34.816 334.916 53.248 334.916 53.248V86.528C334.916 89.472 334.788 93.952 335.684 93.952C335.94 93.952 337.22 92.544 338.5 91.008C340.164 88.96 341.572 86.4 341.572 86.4ZM323.908 61.312V53.248C323.908 52.096 323.396 36.096 314.564 36.096C314.052 36.096 307.396 42.112 305.604 45.184C314.308 46.72 321.604 53.248 323.908 61.312ZM323.908 78.848V64.64C322.5 58.88 318.66 55.808 315.076 55.808C308.292 55.808 303.556 65.024 303.556 76.288C303.556 86.144 307.268 95.232 313.796 95.232C320.068 95.232 323.012 85.632 323.908 78.848Z"
      fill="black" />
    <path
      d="M118.5 203.532L155.364 170.988L161.028 176.46L123.876 209.292L118.5 203.532ZM116.868 175.5C116.868 169.74 118.404 165.26 121.476 162.06C124.612 158.86 128.772 157.26 133.956 157.26L133.668 165.9C131.684 165.9 129.988 166.284 128.58 167.052C127.236 167.884 126.212 169.036 125.508 170.508C124.804 171.98 124.452 173.644 124.452 175.5L116.868 175.5ZM116.868 175.5L124.452 175.5C124.452 176.652 124.676 177.868 125.124 179.148C125.572 180.428 126.308 181.772 127.332 183.18C128.42 184.652 129.828 186.22 131.556 187.884L125.604 192.78C123.492 190.732 121.796 188.716 120.516 186.732C119.3 184.812 118.404 182.924 117.828 181.068C117.188 179.276 116.868 177.42 116.868 175.5ZM133.956 157.26C136.26 157.196 138.5 157.644 140.676 158.604C142.916 159.564 145.028 160.812 147.012 162.348C149.06 163.884 150.948 165.516 152.676 167.244C154.404 169.036 155.972 170.732 157.38 172.332C158.788 173.996 160.004 175.372 161.028 176.46L154.692 182.028C153.668 181.132 152.388 179.788 150.852 177.996C149.38 176.268 147.748 174.476 145.956 172.62C144.164 170.764 142.212 169.164 140.1 167.82C138.052 166.54 135.908 165.9 133.668 165.9L133.956 157.26ZM125.604 192.78L131.556 187.884L146.052 201.228L140.964 206.604L125.604 192.78ZM155.364 170.988C157.028 169.516 158.756 168.044 160.548 166.572C162.34 165.1 164.228 163.852 166.212 162.828C168.26 161.868 170.404 161.388 172.644 161.388L172.74 169.836C171.332 169.836 169.924 170.188 168.516 170.892C167.172 171.596 165.86 172.46 164.58 173.484C163.3 174.572 162.116 175.564 161.028 176.46L155.364 170.988ZM172.644 161.388C175.46 161.324 177.988 161.932 180.228 163.212C182.532 164.556 184.324 166.444 185.604 168.876C186.948 171.308 187.62 174.028 187.62 177.036L180.036 177.036C180.036 174.988 179.332 173.26 177.924 171.852C176.58 170.444 174.852 169.772 172.74 169.836L172.644 161.388ZM171.684 186.06C174.564 185.74 176.676 184.716 178.02 182.988C179.364 181.324 180.036 179.308 180.036 176.94L187.62 176.94C187.62 179.948 187.012 182.668 185.796 185.1C184.58 187.596 182.884 189.612 180.708 191.148C178.596 192.748 176.132 193.74 173.316 194.124L171.684 186.06Z"
      fill="black" />
    <path
      d="M202.616 125.424H253.176V135.024L249.464 146.416H248.824C248.312 142.064 245.496 129.392 242.296 126.832H233.208C233.208 153.2 233.208 179.568 233.208 206.064L235.128 214.896L234.104 215.536C234.104 215.536 228.216 214 218.104 214V212.848C218.104 212.848 221.56 213.744 222.584 208.24C222.584 182.256 222.584 152.688 222.584 126.832H213.368C210.168 129.392 206.584 141.68 206.072 146.032H205.432L202.616 135.024V125.424ZM273.462 126.704V173.296C274.998 164.72 278.71 152.944 287.926 152.944C297.91 152.944 302.774 163.184 302.774 173.936V206.192L304.31 215.024L303.542 215.664C303.542 215.664 298.934 214.128 287.286 214.128V212.976C287.286 212.976 291.382 214 291.894 207.088V173.936C291.894 173.936 292.278 156.528 285.238 156.528C278.966 156.528 273.974 168.944 273.462 179.44V206.192L274.998 215.024L274.23 215.664C274.23 215.664 269.622 214.128 257.974 214.128V212.976C257.974 212.976 262.198 214 262.582 207.088V135.664L256.182 132.464V131.696C262.326 130.416 269.878 126.32 270.902 125.424C271.67 124.784 273.462 125.296 273.462 126.704ZM338.515 135.536L326.867 147.184L325.715 146.288L334.931 129.52L338.515 135.536ZM336.083 168.432C346.835 170.736 355.027 180.208 355.027 193.136C354.899 206.704 346.195 215.536 335.059 215.536C319.571 215.536 308.691 203.248 308.691 184.176C308.691 164.976 318.931 152.816 334.547 152.816C339.283 152.816 352.339 158.704 352.467 166.384C351.315 168.048 349.139 170.096 347.475 170.096C346.451 170.096 345.811 169.456 345.299 168.432H336.083ZM334.675 153.84C328.531 153.84 324.563 159.728 322.259 167.152H344.659C342.867 162.416 341.971 153.84 334.675 153.84ZM321.875 168.432C320.211 174.576 319.443 181.488 319.443 186.736C319.443 201.328 325.331 214.256 335.955 214.256C345.811 214.256 354.131 205.296 354.131 193.136C354.131 180.08 344.147 168.432 330.835 168.432H321.875ZM384.776 152.816C398.856 152.816 409.608 165.36 409.608 184.176C409.608 202.864 398.856 215.536 384.776 215.536C370.568 215.536 359.944 202.864 359.944 184.176C359.944 165.36 370.568 152.816 384.776 152.816ZM398.728 186.096C399.752 168.176 394.888 155.376 386.44 154.096C378.12 152.944 371.848 164.208 370.824 182.128C369.8 200.176 374.792 212.976 383.112 214.128C391.56 215.28 397.704 204.016 398.728 186.096Z"
      fill="black" />
  </g>
  <defs>
    <clipPath id="clip0_216_49">
      <rect width="421" height="225" fill="white" />
    </clipPath>
  </defs>
</svg>